# xmcd
#
# Track frame offsets: 
#        187
#        10015
#        33917
#        52260
#        81432
#        108252
#        133960
#        161117
#        179790
#        199795
#        241782
#        285110
#        310447
#
# Disc length: 4621 seconds
#
# Revision: 12
# Processed by: cddbd v1.5.2PL0 Copyright (c) Steve Scherf et al.
# Submitted via: ExactAudioCopy v0.99pb3
#
DISCID=b5120b0d
DTITLE=BB King - BB King Live In Japan
DYEAR=1971
DGENRE=Blues
TTITLE0=01 - Everday I Have The Blues
TTITLE1=02 - How Blue Can You Get
TTITLE2=03 - Eyesight To The Blind
TTITLE3=04 - Niji Baby
TTITLE4=05 - You Are Still My Woman
TTITLE5=06 - Chains And Things
TTITLE6=07 - Sweet Sixteen
TTITLE7=08 - Hummingbird
TTITLE8=09 - You Know I Love You
TTITLE9=10 - Japanese Boogie
TTITLE10=11 - Jamming At Sankei Hall
TTITLE11=12 - The Thrill Is Gone
TTITLE12=13 - Hikari #88
EXTD=Label: MCA RECORDS\nBestellnummer: 111 810-2\nFirma: Universal Ve
EXTD=rtrieb\nEVOE: 1971 - LP\n------\nRecorded March 4 and 7, 1971, Sa
EXTD=nkei Hall, Tokyo, Japan.\n\nOriginally released as ABC-LP (Japan)
EXTD=841, "Live In Japan" as a double LP, 1971.\n\n\n Für freedb bere
EXTD=i
EXTT0=
EXTT1=
EXTT2=
EXTT3=
EXTT4=
EXTT5=
EXTT6=
EXTT7=
EXTT8=
EXTT9=
EXTT10=
EXTT11=
EXTT12=
PLAYORDER=
